<svg xmlns="http://www.w3.org/2000/svg" viewBox="0 0 248 196" role="img" aria-label="Stock Pickers Academy">
  <defs>
    <linearGradient id="spaBars" x1="0" y1="0" x2="1" y2="0">
      <stop offset="0%" stop-color="#7a5320"/>
      <stop offset="22%" stop-color="#b98f3e"/>
      <stop offset="44%" stop-color="#e6d689"/>
      <stop offset="60%" stop-color="#ece49c"/>
      <stop offset="80%" stop-color="#b3a648"/>
      <stop offset="100%" stop-color="#5c9e46"/>
    </linearGradient>
    <linearGradient id="spaArrow" x1="0" y1="1" x2="1" y2="0">
      <stop offset="0%" stop-color="#2f7d32"/>
      <stop offset="100%" stop-color="#84d17c"/>
    </linearGradient>
  </defs>
  <rect x="18" y="122" width="16" height="58" rx="6" fill="url(#spaBars)"/>
  <rect x="46" y="96" width="16" height="84" rx="6" fill="url(#spaBars)"/>
  <rect x="74" y="64" width="16" height="116" rx="6" fill="url(#spaBars)"/>
  <rect x="102" y="80" width="16" height="100" rx="6" fill="url(#spaBars)"/>
  <rect x="130" y="52" width="16" height="128" rx="6" fill="url(#spaBars)"/>
  <rect x="158" y="64" width="16" height="116" rx="6" fill="url(#spaBars)"/>
  <rect x="186" y="34" width="16" height="146" rx="6" fill="url(#spaBars)"/>
  <rect x="214" y="58" width="16" height="122" rx="6" fill="url(#spaBars)"/>
  <path d="M32 116 L94 62 L126 92 L203 45" fill="none" stroke="url(#spaArrow)" stroke-width="12" stroke-linecap="round" stroke-linejoin="round"/>
  <path d="M222 34 L206 56 L196 34 Z" fill="url(#spaArrow)" stroke="url(#spaArrow)" stroke-width="4" stroke-linejoin="round"/>
</svg>
